<?xml version="1.0" encoding="utf-8"?>
<!-- Generator: Adobe Illustrator 25.0.1, SVG Export Plug-In . SVG Version: 6.00 Build 0)  -->
<svg version="1.1" id="Layer_1" xmlns="http://www.w3.org/2000/svg" xmlns:xlink="http://www.w3.org/1999/xlink" x="0px" y="0px"
	 viewBox="0 0 200 200" style="enable-background:new 0 0 200 200;" xml:space="preserve">
<style type="text/css">
	.st0{fill:#ED1C24;stroke:#231F20;stroke-miterlimit:10;}
	.st1{fill:none;stroke:#231F20;stroke-miterlimit:10;}
	.st2{fill:#231F20;stroke:#231F20;stroke-miterlimit:10;}
</style>
<path class="st0" d="M119.63,27.36c-3.46,2.55-8.18,6.97-11.33,13.83c-4.95,10.78-3.04,21.07-1.43,26.33
	c-2.57,0.12-5.2,0.16-7.89,0.12c-0.99-0.01-1.98-0.04-2.95-0.07c0.72-5.39,0.81-14.29-3.92-23.57
	c-4.25-8.33-10.49-13.26-14.74-15.88c6.71-1.59,15.59-1.43,28.17-1.2C111.03,27.02,115.69,27.11,119.63,27.36z"/>
<path class="st1" d="M54.19,92.53c-0.55,1.2-8.46-0.91-23.76-6.34c-0.15-1.2-0.3-2.41-0.45-3.62c6.94,2.19,13.87,4.38,20.81,6.57
	C53.29,90.88,54.42,92.01,54.19,92.53z"/>
<path class="st2" d="M96.03,67.57c-23.55-0.86-41.99-7.59-53.16-12.78c1.65-5.62,1.44-11.55,5.66-14.07
	c2.59-1.55,3.42-0.21,8.82-2.04c6.01-2.03,9.7-5.31,11.32-6.56c2.48-1.93,5.31-3.18,8.7-4c4.25,2.62,10.49,7.55,14.74,15.88
	C96.84,53.28,96.75,62.18,96.03,67.57z"/>
<path class="st2" d="M159.11,54.83c-10.46,4.85-28.7,11.69-52.24,12.69c-1.61-5.26-3.52-15.55,1.43-26.33
	c3.15-6.86,7.87-11.28,11.33-13.83c8.58,0.55,13.75,1.89,16.68,5.89c1.31,1.79,3.24,5.57,7.24,6.56c3.36,0.84,4.64-1.17,7.24-0.22
	c3.26,1.18,3.06,4.96,7.47,13.57C158.56,53.75,158.84,54.31,159.11,54.83z"/>
<path class="st1" d="M172.06,82.8c-0.6,1.51-1.21,3.02-1.81,4.53c-7.54,1.88-15.08,3.77-22.63,5.65c0.53-1.13,1.06-2.26,1.59-3.39
	C156.83,87.33,164.44,85.06,172.06,82.8z"/>
<path class="st1" d="M172.29,117.64c-2.82,18.2-141.77,19.35-145.03,0.46c-0.73-4.27,5.62-8.61,7.92-10.19
	c17.33-11.83,34.08,6.48,66.97,5.89c30.34-0.55,45.2-16.67,61.99-5.89C166.55,109.46,172.92,113.55,172.29,117.64z"/>
<path class="st0" d="M36.31,63.67c-0.32,0.97-2.35,1.56-3.62,0.9c-1.19-0.62-0.84-1.88-1.81-3.17c-2.13-2.84-6.92-0.77-8.14-2.94
	c-0.98-1.73,1.16-4.69,2.26-5.88c0.78-0.85,2.74-2.96,5.43-2.72c3.54,0.33,6.08,4.55,5.43,7.02c-0.33,1.23-1.3,1.43-1.36,2.71
	C34.41,61.58,36.7,62.5,36.31,63.67z"/>
<path class="st0" d="M170.76,61.19c2.02-2.92,6.89-1.04,8.03-3.25c0.91-1.77-1.34-4.65-2.49-5.79c-0.81-0.82-2.85-2.86-5.53-2.51
	c-3.52,0.47-5.9,4.78-5.15,7.22c0.37,1.22,1.35,1.39,1.46,2.66c0.15,1.78-1.64,2.77-1.7,3.78c-0.48-0.37-0.97-0.8-1.47-1.31
	c-2.01-2.03-3.19-4.05-4.8-7.16c-10.46,4.85-28.7,11.69-52.24,12.69c-2.57,0.12-5.2,0.16-7.89,0.12c-0.99-0.01-1.98-0.04-2.95-0.07
	c-23.55-0.86-41.99-7.59-53.16-12.78c-0.76,2.58-1.91,5.11-4.07,7.2c-0.7,0.67-1.44,1.25-1.49,1.29c-4.63,3.61-8.65,3.25-10.95,4.36
	c-4.32,2.09-4.83,10.41-4.07,25.34c0.86,17.11,1.3,25.66,2.71,28.51c8.67,17.53,40.43,17.59,71.95,17.65
	c28.81,0.05,71.24,0.13,79.41-19.91c0.68-1.68-0.1-0.5,1.58-25.57c1.03-15.3,1.71-21.53-2.49-25.34c-2.42-2.19-4.89-2.09-7.81-3.56
	c0.51,0.01,1.02-0.09,1.44-0.33C170.25,63.76,169.85,62.51,170.76,61.19z M50.79,89.14c2.5,1.74,3.63,2.87,3.4,3.39
	c-0.55,1.2-8.46-0.91-23.76-6.34c-0.15-1.2-0.3-2.41-0.45-3.62C36.92,84.76,43.85,86.95,50.79,89.14z M172.29,117.64
	c-2.82,18.2-141.77,19.35-145.03,0.46c-0.73-4.27,5.62-8.61,7.92-10.19c17.33-11.83,34.08,6.48,66.97,5.89
	c30.34-0.55,45.2-16.67,61.99-5.89C166.55,109.46,172.92,113.55,172.29,117.64z M172.06,82.8c-0.6,1.51-1.21,3.02-1.81,4.53
	c-7.54,1.88-15.08,3.77-22.63,5.65c0.53-1.13,1.06-2.26,1.59-3.39C156.83,87.33,164.44,85.06,172.06,82.8z"/>
<path class="st2" d="M54.19,92.53c-0.55,1.2-8.46-0.91-23.76-6.34c-0.15-1.2-0.3-2.41-0.45-3.62c6.94,2.19,13.87,4.38,20.81,6.57
	C53.29,90.88,54.42,92.01,54.19,92.53z"/>
<path class="st2" d="M172.06,82.8c-0.6,1.51-1.21,3.02-1.81,4.53c-7.54,1.88-15.08,3.77-22.63,5.65c0.53-1.13,1.06-2.26,1.59-3.39
	C156.83,87.33,164.44,85.06,172.06,82.8z"/>
<path class="st2" d="M172.29,117.64c-2.82,18.2-141.77,19.35-145.03,0.46c-0.73-4.27,5.62-8.61,7.92-10.19
	c17.33-11.83,34.08,6.48,66.97,5.89c30.34-0.55,45.2-16.67,61.99-5.89C166.55,109.46,172.92,113.55,172.29,117.64z"/>
</svg>
