<?xml version="1.0" encoding="utf-8"?>
<!-- Generator: Adobe Illustrator 25.0.1, SVG Export Plug-In . SVG Version: 6.00 Build 0)  -->
<svg version="1.1" id="Layer_1" xmlns="http://www.w3.org/2000/svg" xmlns:xlink="http://www.w3.org/1999/xlink" x="0px" y="0px"
	 viewBox="0 0 200 200" style="enable-background:new 0 0 200 200;" xml:space="preserve">
<style type="text/css">
	.st0{fill:#FBB040;stroke:#231F20;stroke-width:1.0872;stroke-miterlimit:10;}
	.st1{fill:#27AAE1;stroke:#231F20;stroke-width:1.0872;stroke-miterlimit:10;}
</style>
<path class="st0" d="M149.87,40.17c-6.21-1.03-12.42-2.04-18.63-3.07c0.1,1.64,0.2,3.3,0.3,4.94c-5.43-0.71-10.86-1.43-16.29-2.14
	c-0.17-1.84-0.35-3.69-0.53-5.53c-16.94-2.79-33.88-5.59-50.82-8.38L50.55,41.23c-3.85,46.26-7.69,92.53-11.54,138.79
	c41.63,0.9,83.26,1.78,124.89,2.67C159.22,135.18,154.54,87.67,149.87,40.17z M104.39,38.82c0.23,4.55,0.46,9.1,0.68,13.64
	c-5.96-0.44-11.91-0.89-17.87-1.34c-0.23-4.81-0.45-9.62-0.68-14.44C92.48,37.4,98.44,38.11,104.39,38.82z M72.31,142.36
	c-5.13-0.72-10.26-1.43-15.39-2.14c-3.09,1.16-6.18,2.32-9.28,3.48c0.23-5.18,0.46-10.34,0.68-15.51c2.49-1.61,4.98-3.21,7.47-4.82
	c5.66,0.18,11.31,0.35,16.97,0.54C72.61,130.05,72.46,136.2,72.31,142.36z M75.43,105.41c-5.12-0.71-10.25-1.43-15.38-2.14
	c-3.09,1.16-6.18,2.32-9.28,3.48c0.23-5.17,0.46-10.34,0.68-15.51c2.49-1.61,4.98-3.21,7.47-4.81c5.65,0.18,11.31,0.35,16.97,0.53
	C75.74,93.11,75.59,99.26,75.43,105.41z M60.95,65.57c-2.94,1.69-5.88,3.38-8.82,5.08c0.3-4.81,0.6-9.63,0.91-14.44
	c2.86-2.49,5.73-4.99,8.59-7.48c4.6,0.44,9.2,0.89,13.8,1.34c0.16,5.08,0.31,10.15,0.46,15.24C70.91,65.39,65.93,65.47,60.95,65.57z
	 M82.22,138.03c0.3-4.63,0.61-9.27,0.91-13.9c6.18-0.09,12.36-0.18,18.55-0.27c0.15,4.91,0.3,9.81,0.45,14.7
	C95.49,138.39,88.86,138.21,82.22,138.03z M85.84,86.96c0.3-5.71,0.6-11.41,0.91-17.12c6.56,0.98,13.12,1.96,19.68,2.94
	c0.38,5.08,0.75,10.15,1.13,15.24C100.32,87.67,93.08,87.31,85.84,86.96z M115.48,56.2c6.56,0.89,13.12,1.78,19.68,2.67
	c0.23,5.44,0.46,10.87,0.68,16.31c-6.48-1.06-12.97-2.14-19.46-3.2C116.08,66.72,115.78,61.46,115.48,56.2z M117.97,90.97
	c6.48,0.27,12.97,0.53,19.46,0.8c-0.16,5.71-0.31,11.41-0.46,17.12c-6.26-0.09-12.52-0.18-18.78-0.27
	C118.12,102.74,118.04,96.85,117.97,90.97z M119.25,138.09c0.3-4.63,0.6-9.27,0.9-13.9c6.18-0.09,12.37-0.18,18.55-0.27
	c0.15,4.91,0.3,9.81,0.45,14.7C132.52,138.45,125.88,138.27,119.25,138.09z"/>
<path class="st1" d="M131.54,42.03c-5.43-0.71-10.86-1.43-16.29-2.14c-0.17-1.84-0.35-3.69-0.53-5.53
	c-0.34-3.69-0.7-7.36-1.05-11.05c5.66,1.25,11.31,2.49,16.97,3.75c0.2,3.35,0.4,6.69,0.6,10.03
	C131.34,38.73,131.44,40.39,131.54,42.03z"/>
<path class="st1" d="M135.84,75.19c-6.48-1.06-12.97-2.14-19.46-3.2c-0.3-5.26-0.6-10.52-0.9-15.78c6.56,0.89,13.12,1.78,19.68,2.67
	C135.39,64.31,135.62,69.75,135.84,75.19z"/>
<path class="st1" d="M105.07,52.46c-5.96-0.44-11.91-0.89-17.87-1.34c-0.23-4.81-0.45-9.62-0.68-14.44
	c5.96,0.72,11.92,1.43,17.87,2.14C104.62,43.37,104.85,47.92,105.07,52.46z"/>
<path class="st1" d="M107.56,88.02c-7.24-0.35-14.48-0.71-21.72-1.06c0.3-5.71,0.6-11.41,0.91-17.12
	c6.56,0.98,13.12,1.96,19.68,2.94C106.81,77.87,107.18,82.94,107.56,88.02z"/>
<path class="st1" d="M137.43,91.77c-0.16,5.71-0.31,11.41-0.46,17.12c-6.26-0.09-12.52-0.18-18.78-0.27
	c-0.07-5.87-0.15-11.76-0.22-17.65C124.45,91.24,130.94,91.5,137.43,91.77z"/>
<path class="st1" d="M75.89,86.96c-0.15,6.15-0.3,12.3-0.46,18.45c-5.12-0.71-10.25-1.43-15.38-2.14c-3.09,1.16-6.18,2.32-9.28,3.48
	c0.23-5.17,0.46-10.34,0.68-15.51c2.49-1.61,4.98-3.21,7.47-4.81C64.57,86.6,70.23,86.78,75.89,86.96z"/>
<path class="st1" d="M72.76,123.91c-0.15,6.15-0.3,12.29-0.45,18.45c-5.13-0.72-10.26-1.43-15.39-2.14
	c-3.09,1.16-6.18,2.32-9.28,3.48c0.23-5.18,0.46-10.34,0.68-15.51c2.49-1.61,4.98-3.21,7.47-4.82
	C61.45,123.54,67.1,123.72,72.76,123.91z"/>
<path class="st1" d="M75.89,65.29c-4.98,0.09-9.96,0.18-14.94,0.27c-2.94,1.69-5.88,3.38-8.82,5.08c0.3-4.81,0.6-9.63,0.91-14.44
	c2.86-2.49,5.73-4.99,8.59-7.48c4.6,0.44,9.2,0.89,13.8,1.34C75.59,55.14,75.74,60.21,75.89,65.29z"/>
<path class="st1" d="M102.13,138.56c-6.64-0.18-13.27-0.35-19.91-0.53c0.3-4.63,0.61-9.27,0.91-13.9
	c6.18-0.09,12.36-0.18,18.55-0.27C101.83,128.77,101.98,133.67,102.13,138.56z"/>
<path class="st1" d="M139.15,138.62c-6.63-0.18-13.27-0.35-19.9-0.53c0.3-4.63,0.6-9.27,0.9-13.9c6.18-0.09,12.37-0.18,18.55-0.27
	C138.85,128.83,139,133.73,139.15,138.62z"/>
</svg>
