<?xml version="1.0" encoding="utf-8"?>
<!-- Generator: Adobe Illustrator 25.0.1, SVG Export Plug-In . SVG Version: 6.00 Build 0)  -->
<svg version="1.1" id="Layer_1" xmlns="http://www.w3.org/2000/svg" xmlns:xlink="http://www.w3.org/1999/xlink" x="0px" y="0px"
	 viewBox="0 0 200 200" style="enable-background:new 0 0 200 200;" xml:space="preserve">
<style type="text/css">
	.st0{fill:#ED1C24;stroke:#231F20;stroke-miterlimit:10;}
	.st1{fill:#231F20;stroke:#231F20;stroke-miterlimit:10;}
	.st2{fill:none;stroke:#231F20;stroke-miterlimit:10;}
	.st3{fill:#FFFF2B;stroke:#231F20;stroke-miterlimit:10;}
</style>
<path class="st0" d="M119.6,27.4c-3.5,2.5-8.2,7-11.3,13.8c-4.9,10.8-3,21.1-1.4,26.3c-2.6,0.1-5.2,0.2-7.9,0.1c-1,0-2,0-2.9-0.1
	c0.7-5.4,0.8-14.3-3.9-23.6c-4.2-8.3-10.5-13.3-14.7-15.9c6.7-1.6,15.6-1.4,28.2-1.2C111,27,115.7,27.1,119.6,27.4z"/>
<path class="st1" d="M96,67.6C72.5,66.7,54,60,42.9,54.8c1.7-5.6,1.4-11.5,5.7-14.1c2.6-1.5,3.4-0.2,8.8-2c6-2,9.7-5.3,11.3-6.6
	c2.5-1.9,5.3-3.2,8.7-4c4.2,2.6,10.5,7.5,14.7,15.9C96.8,53.3,96.8,62.2,96,67.6z"/>
<path class="st1" d="M159.1,54.8c-10.5,4.8-28.7,11.7-52.2,12.7c-1.6-5.3-3.5-15.5,1.4-26.3c3.2-6.9,7.9-11.3,11.3-13.8
	c8.6,0.5,13.8,1.9,16.7,5.9c1.3,1.8,3.2,5.6,7.2,6.6c3.4,0.8,4.6-1.2,7.2-0.2c3.3,1.2,3.1,5,7.5,13.6
	C158.6,53.8,158.8,54.3,159.1,54.8z"/>
<path class="st2" d="M172.3,117.6c-2.8,18.2-141.8,19.4-145,0.5c-0.7-4.3,5.6-8.6,7.9-10.2c17.3-11.8,34.1,6.5,67,5.9
	c30.3-0.6,45.2-16.7,62-5.9C166.6,109.5,172.9,113.6,172.3,117.6z"/>
<path class="st0" d="M36.3,63.7c-0.3,1-2.3,1.6-3.6,0.9c-1.2-0.6-0.8-1.9-1.8-3.2c-2.1-2.8-6.9-0.8-8.1-2.9c-1-1.7,1.2-4.7,2.3-5.9
	c0.8-0.8,2.7-3,5.4-2.7c3.5,0.3,6.1,4.5,5.4,7c-0.3,1.2-1.3,1.4-1.4,2.7C34.4,61.6,36.7,62.5,36.3,63.7z"/>
<path class="st0" d="M170.8,61.2c2-2.9,6.9-1,8-3.2c0.9-1.8-1.3-4.7-2.5-5.8c-0.8-0.8-2.8-2.9-5.5-2.5c-3.5,0.5-5.9,4.8-5.2,7.2
	c0.4,1.2,1.3,1.4,1.5,2.7c0.1,1.8-1.6,2.8-1.7,3.8c-0.5-0.4-1-0.8-1.5-1.3c-2-2-3.2-4-4.8-7.2c-10.5,4.8-28.7,11.7-52.2,12.7
	c-2.6,0.1-5.2,0.2-7.9,0.1c-1,0-2,0-2.9-0.1C72.5,66.7,54,60,42.9,54.8c-0.8,2.6-1.9,5.1-4.1,7.2c-0.7,0.7-1.4,1.2-1.5,1.3
	c-4.6,3.6-8.7,3.2-11,4.4C22,69.7,21.5,78,22.3,93c0.9,17.1,1.3,25.7,2.7,28.5c8.7,17.5,40.4,17.6,72,17.7
	c28.8,0,71.2,0.1,79.4-19.9c0.7-1.7-0.1-0.5,1.6-25.6c1-15.3,1.7-21.5-2.5-25.3c-2.4-2.2-4.9-2.1-7.8-3.6c0.5,0,1-0.1,1.4-0.3
	C170.2,63.8,169.8,62.5,170.8,61.2z M50.8,89.1c2.5,1.7,3.6,2.9,3.4,3.4c-0.5,1.2-8.5-0.9-23.8-6.3c-0.1-1.2-0.3-2.4-0.5-3.6
	C36.9,84.8,43.8,87,50.8,89.1z M172.3,117.6c-2.8,18.2-141.8,19.3-145,0.5c-0.7-4.3,5.6-8.6,7.9-10.2c17.3-11.8,34.1,6.5,67,5.9
	c30.3-0.5,45.2-16.7,62-5.9C166.5,109.5,172.9,113.5,172.3,117.6z M172.1,82.8c-0.6,1.5-1.2,3-1.8,4.5c-7.5,1.9-15.1,3.8-22.6,5.6
	c0.5-1.1,1.1-2.3,1.6-3.4C156.8,87.3,164.4,85.1,172.1,82.8z"/>
<path class="st3" d="M54.2,92.5c-0.5,1.2-8.5-0.9-23.8-6.3c-0.1-1.2-0.3-2.4-0.5-3.6c6.9,2.2,13.9,4.4,20.8,6.6
	C53.3,90.9,54.4,92,54.2,92.5z"/>
<path class="st3" d="M172.1,82.8c-0.6,1.5-1.2,3-1.8,4.5c-7.5,1.9-15.1,3.8-22.6,5.6c0.5-1.1,1.1-2.3,1.6-3.4
	C156.8,87.3,164.4,85.1,172.1,82.8z"/>
<path class="st1" d="M172.3,117.6c-2.8,18.2-141.8,19.4-145,0.5c-0.7-4.3,5.6-8.6,7.9-10.2c17.3-11.8,34.1,6.5,67,5.9
	c30.3-0.6,45.2-16.7,62-5.9C166.6,109.5,172.9,113.6,172.3,117.6z"/>
</svg>
