<?xml version="1.0" encoding="utf-8"?>
<!-- Generator: Adobe Illustrator 25.0.1, SVG Export Plug-In . SVG Version: 6.00 Build 0)  -->
<svg version="1.1" id="Layer_1" xmlns="http://www.w3.org/2000/svg" xmlns:xlink="http://www.w3.org/1999/xlink" x="0px" y="0px"
	 viewBox="0 0 200 200" style="enable-background:new 0 0 200 200;" xml:space="preserve">
<style type="text/css">
	.st0{fill:#7F4B00;}
	.st1{fill:none;stroke:#006838;stroke-width:3;stroke-linecap:round;stroke-miterlimit:10;}
	.st2{fill:none;stroke:#006838;stroke-width:9;stroke-linecap:round;stroke-miterlimit:10;}
</style>
<g id="Layer_1_1_">
	<path class="st0" d="M100.9,65.6c-1,20.7-2.3,42.2-7.3,62.4c-2.6,10.4-6.9,20.1-11.2,29.8c-4.1,9.1-7.2,19.8-15.9,25.5
		c-5.4,3.5-0.4,12.2,5.1,8.6c9.2-6,13.1-14.8,17.5-24.6c4.9-10.8,10-21.6,13.3-33.1c3.2-11.2,4.3-22.9,5.8-34.4
		c1.5-11.5,2.3-22.8,2.9-34.4C111.3,59.2,101.3,59.2,100.9,65.6z"/>
	<line class="st1" x1="117.1" y1="73.6" x2="110.2" y2="77.9"/>
	<line class="st1" x1="114.8" y1="68.9" x2="110.9" y2="71.8"/>
	<path class="st2" d="M105.6,60.8c31.9-22.6,42.7,20.8,42.7,20.8"/>
	<path class="st2" d="M103.2,58.8C60.2,69,59.2,93.4,59.2,93.4"/>
	<path class="st2" d="M105.6,58.8c-45.8-25.1-53.6-8.5-53.6-8.5"/>
	<path class="st2" d="M103.2,60.8c27.5-36.8,40.7-39.6,40.7-39.6"/>
	<path class="st2" d="M112.4,63.2c-38.3-38.6,5.8-54.9,5.8-54.9"/>
	<path class="st2" d="M68,23.6c0,0-3,11.2,37.6,35.2c27.5,16.3,18,42.7,18,42.7"/>
	<line class="st1" x1="144.9" y1="22.9" x2="150.4" y2="31.7"/>
	<line class="st1" x1="140.2" y1="25.5" x2="146.6" y2="37.3"/>
	<line class="st1" x1="136.2" y1="27.3" x2="142" y2="41"/>
	<line class="st1" x1="132.3" y1="30.3" x2="137.5" y2="44"/>
	<line class="st1" x1="128.9" y1="34.2" x2="132.3" y2="46.4"/>
	<line class="st1" x1="125.2" y1="37.1" x2="127" y2="48.8"/>
	<line class="st1" x1="121" y1="42.1" x2="122.8" y2="51.9"/>
	<line class="st1" x1="149" y1="83.7" x2="147.7" y2="96.2"/>
	<line class="st1" x1="145.4" y1="80.6" x2="143.4" y2="92.8"/>
	<line class="st1" x1="143.9" y1="73.7" x2="139.9" y2="87.4"/>
	<line class="st1" x1="141.2" y1="68.8" x2="136.1" y2="81.6"/>
	<line class="st1" x1="136.9" y1="62.6" x2="133" y2="75.2"/>
	<line class="st1" x1="132.7" y1="60.1" x2="130" y2="67.9"/>
	<line class="st1" x1="129.5" y1="57" x2="126.1" y2="65.8"/>
	<line class="st1" x1="123.6" y1="57.4" x2="121.2" y2="64"/>
	<line class="st1" x1="121" y1="100.7" x2="117.3" y2="103.8"/>
	<line class="st1" x1="121.9" y1="94.2" x2="115.8" y2="99.4"/>
	<line class="st1" x1="122.4" y1="88.8" x2="114" y2="93.4"/>
	<line class="st1" x1="122.4" y1="83.2" x2="113.9" y2="87.6"/>
	<line class="st1" x1="120.7" y1="77.7" x2="112" y2="82.5"/>
	<line class="st1" x1="98.9" y1="63.2" x2="98.3" y2="73.5"/>
	<line class="st1" x1="94.5" y1="64.9" x2="94" y2="75.2"/>
	<line class="st1" x1="88.9" y1="66.8" x2="89.2" y2="76.1"/>
	<line class="st1" x1="83.5" y1="68.9" x2="84.8" y2="77.7"/>
	<line class="st1" x1="78.8" y1="72.2" x2="80.6" y2="82.2"/>
	<line class="st1" x1="73.6" y1="74.1" x2="75.8" y2="85.4"/>
	<line class="st1" x1="69.2" y1="78.4" x2="71.4" y2="88"/>
	<line class="st1" x1="65.4" y1="83.2" x2="67.9" y2="92.8"/>
	<line class="st1" x1="62.3" y1="91.1" x2="64.7" y2="97.6"/>
	<line class="st1" x1="89.1" y1="54.2" x2="85.2" y2="58.8"/>
	<line class="st1" x1="84.1" y1="51.9" x2="79.7" y2="58.8"/>
	<line class="st1" x1="79.7" y1="50" x2="75.8" y2="57.3"/>
	<line class="st1" x1="74.7" y1="48.8" x2="72.4" y2="58"/>
	<line class="st1" x1="70.3" y1="48.3" x2="69.3" y2="58.2"/>
	<line class="st1" x1="66.7" y1="47" x2="65.2" y2="57.8"/>
	<line class="st1" x1="61.4" y1="48.5" x2="61" y2="57.1"/>
	<line class="st1" x1="56.6" y1="50.9" x2="57" y2="55.4"/>
	<line class="st1" x1="71.1" y1="22.4" x2="77.8" y2="12.2"/>
	<line class="st1" x1="73.6" y1="28.5" x2="80.3" y2="17.3"/>
	<line class="st1" x1="75.5" y1="31.4" x2="83.5" y2="21.2"/>
	<line class="st1" x1="78.8" y1="36.5" x2="86.2" y2="28.3"/>
	<line class="st1" x1="82.5" y1="39.4" x2="87.5" y2="34.2"/>
	<line class="st1" x1="85.9" y1="42.3" x2="90.7" y2="37.8"/>
	<line class="st1" x1="119.2" y1="10.3" x2="126.1" y2="13.5"/>
	<line class="st1" x1="116.3" y1="11.3" x2="121.9" y2="16.1"/>
	<line class="st1" x1="112.9" y1="14.6" x2="118.1" y2="19.2"/>
	<line class="st1" x1="109.7" y1="16.4" x2="112.9" y2="23.6"/>
	<line class="st1" x1="104.7" y1="19.2" x2="108.9" y2="26.3"/>
	<line class="st1" x1="101.2" y1="25" x2="107.5" y2="30.6"/>
	<line class="st1" x1="100.1" y1="31.4" x2="106.8" y2="34.2"/>
	<line class="st1" x1="100.4" y1="37.1" x2="105.6" y2="38.5"/>
	<line class="st1" x1="101.9" y1="44" x2="107.5" y2="43"/>
</g>
</svg>
